
<svg xmlns="http://www.w3.org/2000/svg" viewBox="0 0 300 300">
  <defs>
    <linearGradient id="mainGradient" x1="0%" y1="0%" x2="100%" y2="100%">
      <stop offset="0%" stop-color="#000000"/>
      <stop offset="100%" stop-color="#3b82f6"/>
    </linearGradient>
    <linearGradient id="accentGradient" x1="0%" y1="0%" x2="100%" y2="100%">
      <stop offset="0%" stop-color="#3b82f6"/>
      <stop offset="100%" stop-color="#8b5cf6"/>
    </linearGradient>
  </defs>
  
  <g transform="translate(50, 50)">
    <rect x="0" y="0" width="200" height="200" rx="30" ry="30" fill="none" stroke="#3b82A6" stroke-width="2"/>
    
    <path d="M30,50 L80,50 L80,100 L130,100 L130,150 L170,150" fill="none" stroke="#3b82f6" stroke-width="3"/>
    <path d="M50,30 L50,80 L100,80 L100,130 L150,130 L150,170" fill="none" stroke="#8b5cf6" stroke-width="3"/>
    
    <circle cx="30" cy="50" r="5" fill="#3b82f6"/>
    <circle cx="80" cy="50" r="5" fill="#3b82f6"/>
    <circle cx="80" cy="100" r="5" fill="#3b82f6"/>
    <circle cx="130" cy="100" r="5" fill="#3b82f6"/>
    <circle cx="130" cy="150" r="5" fill="#3b82f6"/>
    <circle cx="170" cy="150" r="5" fill="#3b82f6"/>
    
    <circle cx="50" cy="30" r="5" fill="#8b5cf6"/>
    <circle cx="50" cy="80" r="5" fill="#8b5cf6"/>
    <circle cx="100" cy="80" r="5" fill="#8b5cf6"/>
    <circle cx="100" cy="130" r="5" fill="#8b5cf6"/>
    <circle cx="150" cy="130" r="5" fill="#8b5cf6"/>
    <circle cx="150" cy="170" r="5" fill="#8b5cf6"/>
    
    <path d="M70,70 L130,70 Q150,70 150,90 Q150,110 130,110 L70,110 Q50,110 50,90 Q50,70 70,70 Z" 
          fill="none" stroke="url(#mainGradient)" stroke-width="10" stroke-linecap="round"/>
    
    <path d="M100,110 L160,110 Q180,110 180,130 Q180,150 160,150 L100,150 Q80,150 80,130 Q80,110 100,110 Z" 
          fill="none" stroke="url(#accentGradient)" stroke-width="10" stroke-linecap="round" opacity="0.8"/>
    
    <circle cx="100" cy="110" r="11" fill="url(#mainGradient)"/>
    <text x="100" y="117" font-family="Arial" font-size="16" font-weight="bold" fill="white" text-anchor="middle">IQ</text>
    
    <text x="100" y="180" font-family="Times New Roman" font-size="20" font-weight="bold" fill="White" text-anchor="middle">Chain IQ</text>
  </g>
</svg>
